<?xml version="1.0" standalone="no"?>
<!DOCTYPE svg PUBLIC "-//W3C//DTD SVG 20010904//EN"
 "http://www.w3.org/TR/2001/REC-SVG-20010904/DTD/svg10.dtd">
<svg version="1.0" xmlns="http://www.w3.org/2000/svg"
 width="64.000000pt" height="64.000000pt" viewBox="0 0 64.000000 64.000000"
 preserveAspectRatio="xMidYMid meet">

<g transform="translate(0.000000,64.000000) scale(0.100000,-0.100000)"
fill="#000000" stroke="none">
<path d="M256 465 c-29 -20 -50 -25 -94 -25 -32 0 -63 -5 -70 -12 -17 -17 -17
-309 0 -326 17 -17 121 -16 116 1 -3 7 -25 13 -52 15 l-47 3 3 147 3 147 205
0 205 0 3 -147 3 -148 -65 0 c-72 0 -69 -4 -82 98 -6 48 -18 71 -30 59 -3 -3
2 -53 11 -112 9 -58 14 -112 11 -120 -4 -11 -22 -15 -62 -15 l-57 0 7 61 c6
48 4 60 -6 57 -7 -3 -17 -30 -22 -61 l-9 -57 -49 0 c-26 0 -48 -4 -48 -10 0
-6 28 -10 63 -11 128 -2 361 2 365 6 3 2 2 16 -2 30 -8 30 -26 34 -26 5 0 -18
-7 -20 -60 -20 l-60 0 0 30 0 30 63 0 c36 0 68 5 75 12 17 17 17 309 0 326 -7
7 -38 12 -70 12 -44 0 -65 5 -94 25 -20 14 -49 25 -64 25 -15 0 -44 -11 -64
-25z"/>
<path d="M52 58 c-14 -14 -16 -48 -3 -48 8 0 41 43 41 55 0 10 -26 5 -38 -7z"/>
<path d="M610 20 c0 -5 5 -10 10 -10 6 0 10 5 10 10 0 6 -4 10 -10 10 -5 0
-10 -4 -10 -10z"/>
</g>
</svg>
